<?xml version="1.0" encoding="UTF-8"?>
<svg preserveAspectRatio="xMidYMid slice" xmlns="http://www.w3.org/2000/svg" width="60px" height="10px" viewBox="0 0 150 27" fill="none">
  <path d="M149.973 26H141.441L134.961 16.64V26H128.121V0.799988H138.885C145.545 0.799988 148.389 4.72399 148.389 9.07999C148.389 12.428 146.697 15.416 142.989 16.64L149.973 26ZM137.949 6.84799H134.961V12.248H137.949C140.037 12.248 141.297 11.384 141.297 9.51199C141.297 7.63999 140.037 6.84799 137.949 6.84799Z" fill="#EF4444"></path>
  <path d="M115.308 19.736H125.064V26H108.468V0.799988H124.524V7.06399H115.308V10.052H123.408V15.992H115.308V19.736Z" fill="#EF4444"></path>
  <path d="M106.315 0.799988V7.06399H100.015V26H93.1753V7.06399H86.8753V0.799988H106.315Z" fill="#EF4444"></path>
  <path d="M87.6054 26H79.0734L72.5934 16.64V26H65.7534V0.799988H76.5174C83.1774 0.799988 86.0214 4.72399 86.0214 9.07999C86.0214 12.428 84.3294 15.416 80.6214 16.64L87.6054 26ZM75.5814 6.84799H72.5934V12.248H75.5814C77.6694 12.248 78.9294 11.384 78.9294 9.51199C78.9294 7.63999 77.6694 6.84799 75.5814 6.84799Z" fill="#EF4444"></path>
  <path d="M56.9123 26L55.3643 21.284H46.7603L45.2123 26H37.6523L47.4083 0.799988H54.7163L64.4723 26H56.9123ZM48.4883 15.884H53.6363L51.0803 7.99999L48.4883 15.884Z" fill="#EF4444"></path>
  <path d="M40.3622 0.799988V7.06399H34.0622V26H27.2222V7.06399H20.9222V0.799988H40.3622Z" fill="#EF4444"></path>
  <path d="M11.592 0.26001C14.22 0.26001 16.956 0.800009 20.196 2.38401L17.244 8.46801C15.12 7.06401 12.708 6.45201 11.088 6.45201C10.008 6.45201 9.53999 6.74001 9.53999 7.38801C9.53999 7.85601 9.82799 8.21601 10.872 8.75601L16.056 11.42C18.72 12.788 20.736 14.588 20.736 18.548C20.736 23.732 17.28 26.54 10.836 26.54C7.09199 26.54 3.59999 25.604 0.179993 23.696L3.31199 17.144C6.29999 19.268 8.74799 20.24 11.196 20.24C12.528 20.24 13.32 19.952 13.32 19.124C13.32 18.512 12.888 18.188 12.096 17.792L6.58799 15.02C3.67199 13.544 2.12399 11.06 2.12399 7.89201C2.12399 3.39201 5.25599 0.26001 11.592 0.26001Z" fill="#EF4444"></path>
</svg>
